<svg xmlns="http://www.w3.org/2000/svg" width="768" height="512" viewBox="0 0 768 512" role="img" aria-label="Abstract product workspace">
  <defs>
    <linearGradient id="sky" x1="0" y1="0" x2="1" y2="1">
      <stop offset="0" stop-color="#dbeafe"/>
      <stop offset="0.48" stop-color="#e0e7ff"/>
      <stop offset="1" stop-color="#fce7f3"/>
    </linearGradient>
    <linearGradient id="panel" x1="0" y1="0" x2="1" y2="1">
      <stop offset="0" stop-color="#ffffff"/>
      <stop offset="1" stop-color="#f8fafc"/>
    </linearGradient>
    <filter id="shadow" x="-20%" y="-20%" width="140%" height="140%">
      <feDropShadow dx="0" dy="18" stdDeviation="18" flood-color="#1e293b" flood-opacity="0.16"/>
    </filter>
  </defs>
  <rect width="768" height="512" fill="url(#sky)"/>
  <circle cx="118" cy="88" r="74" fill="#60a5fa" opacity="0.3"/>
  <circle cx="666" cy="104" r="92" fill="#c084fc" opacity="0.26"/>
  <circle cx="642" cy="424" r="118" fill="#38bdf8" opacity="0.16"/>
  <g filter="url(#shadow)">
    <rect x="118" y="88" width="532" height="336" rx="34" fill="url(#panel)"/>
    <rect x="158" y="132" width="198" height="26" rx="13" fill="#2563eb" opacity="0.9"/>
    <rect x="158" y="184" width="452" height="22" rx="11" fill="#cbd5e1"/>
    <rect x="158" y="224" width="328" height="18" rx="9" fill="#e2e8f0"/>
    <rect x="158" y="284" width="128" height="78" rx="20" fill="#dbeafe"/>
    <rect x="320" y="284" width="128" height="78" rx="20" fill="#ede9fe"/>
    <rect x="482" y="284" width="128" height="78" rx="20" fill="#fce7f3"/>
  </g>
  <path d="M144 446C240 398 310 392 384 426C478 470 568 466 682 402V512H144Z" fill="#2563eb" opacity="0.12"/>
</svg>
